#!OML:ASF H:\Terrain\Patient Classification 1\Walking\liu\liu.ASF
:FULLY-SPECIFIED
:DEGREES
99
root 0.0196 16.0009 21.5194 8.77084 0.0324 4.68393
lowerback -4.92159 -4.31597 -7.00474
upperback -0.653645 -5.43 2.01776
thorax 2.92595 -2.80615 5.58473
lowerneck -23.5992 -3.26326 -11.6055
upperneck 22.9194 -3.44085 11.0979
head 11.8291 -1.14191 5.56911
rclavicle -2.80783e-014 -2.38542e-015
rhumerus -50.5654 3.27385 -78.8952
rradius 26.6914
rwrist -10.3728
rhand -28.1312 -19.5482
rfingers 7.12502
rthumb -1.51264 -49.5226
lclavicle -2.80783e-014 -2.38542e-015
lhumerus -10.422 -21.3673 83.27
lradius 40.7692
lwrist 10.9777
lhand -16.0646 -28.4497
lfingers 7.12502
lthumb 10.1378 1.2861
rfemur -43.5317 6.64149 13.763
rtibia 27.6541
rfoot -19.9304 -5.01533
rtoes -21.1215
lfemur 17.1192 5.6363 -26.8722
ltibia -8.5875e-014
lfoot -8.87631 -7.74869
ltoes 5.51733
100
root 0.0196 15.9573 21.698 8.58373 0.0324 4.97332
lowerback -4.73024 -4.28011 -7.27481
upperback -0.639247 -5.37844 1.91311
thorax 2.84062 -2.78028 5.64497
lowerneck -23.6709 -3.3481 -11.6058
upperneck 22.9618 -3.53207 11.0134
head 11.8704 -1.19239 5.52317
rclavicle 4.4975e-014 2.54444e-014
rhumerus -50.7674 3.09673 -78.8704
rradius 26.4055
rwrist -10.3627
rhand -28.2059 -18.7488
rfingers 7.12502
rthumb -1.5848 -48.7226
lclavicle 4.4975e-014 2.54444e-014
lhumerus -10.6557 -21.6348 83.4768
lradius 41.27
lwrist 11.3243
lhand -15.7651 -28.8297
lfingers 7.12502
lthumb 10.4268 0.891745
rfemur -43.2904 5.79989 14.2375
rtibia 28.7446
rfoot -18.4625 -3.76647
rtoes -22.2031
lfemur 18.1528 5.84831 -26.8205
ltibia 3.18055e-015
lfoot -8.03208 -8.13273
ltoes 6.74076
101
root 0.0196 15.9246 21.8767 8.59487 0.0324 4.95138
lowerback -4.88667 -4.34931 -7.21866
upperback -0.651785 -5.46316 1.94159
thorax 2.92584 -2.82456 5.62364
lowerneck -23.9606 -3.33676 -11.4285
upperneck 23.1736 -3.45387 10.6312
head 11.9855 -1.18561 5.36776
rclavicle -3.06625e-014 1.19271e-014
rhumerus -50.732 2.76458 -78.5692
rradius 26.0852
rwrist -10.0848
rhand -29.1986 -20.4722
rfingers 7.12502
rthumb -2.54349 -50.4368
lclavicle -3.06625e-014 1.19271e-014
lhumerus -11.053 -21.9547 83.6753
lradius 41.6615
lwrist 11.1895
lhand -16.4978 -29.3906
lfingers 7.12502
lthumb 9.71989 0.365133
rfemur -43.3373 5.17112 14.8651
rtibia 30.0154
rfoot -15.9905 -2.82421
rtoes -22.6646
lfemur 18.9279 5.97653 -26.4681
ltibia 0
lfoot -7.15942 -8.30048
ltoes 6.47439
102
root 0.0196 15.9105 22.0554 8.58931 0.0324 5.07994
lowerback -5.05471 -4.44542 -7.30377
upperback -0.700356 -5.57421 1.90833
thorax 2.99106 -2.88115 5.61411
lowerneck -23.9903 -3.13983 -11.4027
upperneck 23.2217 -3.1969 10.6808
head 11.9748 -1.06152 5.4294
rclavicle -1.00585e-013 1.43125e-014
rhumerus -50.453 1.88966 -77.7789
rradius 25.5359
rwrist -8.73041
rhand -29.1846 -21.9356
rfingers 7.12502
rthumb -2.52999 -51.9004
lclavicle -1.00585e-013 1.43125e-014
lhumerus -11.6852 -22.1797 83.7347
lradius 42.1948
lwrist 11.1349
lhand -17.0777 -29.6128
lfingers 7.12502
lthumb 9.16037 0.168262
rfemur -43.5321 4.79948 15.1641
rtibia 31.3437
rfoot -12.9908 -2.29757
rtoes -23.0194
lfemur 19.676 6.29675 -26.3223
ltibia 1.27222e-014
lfoot -6.31637 -8.27114
ltoes 3.83268
103
root 0.0196 15.9087 22.2341 8.55854 0.0324 5.17814
lowerback -5.16577 -4.53278 -7.3679
upperback -0.784026 -5.68011 1.89257
thorax 2.98672 -2.93164 5.61723
lowerneck -23.8486 -3.03568 -11.7809
upperneck 23.2402 -3.08093 11.231
head 11.9553 -0.977065 5.7318
rclavicle -2.25621e-014 3.18055e-015
rhumerus -50.5229 1.46303 -77.3135
rradius 25.6668
rwrist -8.1601
rhand -29.725 -23.0381
rfingers 7.12502
rthumb -3.05188 -52.996
lclavicle -2.25621e-014 3.18055e-015
lhumerus -12.2644 -22.2972 83.8907
lradius 42.5993
lwrist 11.3918
lhand -17.1447 -29.7702
lfingers 7.12502
lthumb 9.09572 0.013689
rfemur -43.8074 4.72535 15.2172
rtibia 32.678
rfoot -10.6283 -1.87508
rtoes -21.4649
lfemur 20.4473 6.56222 -26.1389
ltibia -6.36111e-015
lfoot -5.28931 -8.11702
ltoes 0.596852
104
root 0.0196 15.8967 22.4128 8.47373 0.0324 4.8984
lowerback -5.1769 -4.53452 -7.09251
upperback -0.89002 -5.70335 2.03071
thorax 2.87332 -2.93429 5.60971
lowerneck -23.9292 -3.07157 -11.9902
upperneck 23.4589 -3.06463 11.2556
head 12.0574 -0.987023 5.79291
rclavicle 1.63997e-014 3.97569e-015
rhumerus -50.8517 1.35001 -77.0311
rradius 25.9949
rwrist -8.39408
rhand -31.3648 -22.779
rfingers 7.12502
rthumb -4.63543 -52.7083
lclavicle 1.63997e-014 3.97569e-015
lhumerus -12.8491 -22.6059 84.3606
lradius 42.9086
lwrist 11.6658
lhand -17.4534 -29.8576
lfingers 7.12502
lthumb 8.79783 -0.0609847
rfemur -43.8731 4.86762 15.571
rtibia 33.9888
rfoot -8.97012 -1.5983
rtoes -17.8796
lfemur 21.2579 6.76792 -25.5016
ltibia 6.67916e-014
lfoot -3.94813 -7.94793
ltoes -0.986033
105
root 0.0196 15.8779 22.5914 8.20467 0.0324 4.57526
lowerback -4.98811 -4.46125 -6.68045
upperback -0.915313 -5.64356 2.10232
thorax 2.69987 -2.89437 5.47654
lowerneck -24.266 -3.11693 -11.9777
upperneck 23.9052 -3.058 11.0321
head 12.2922 -1.01058 5.73014
rclavicle 5.76972e-014 -3.18055e-015
rhumerus -51.0097 1.64751 -77.2892
rradius 25.7281
rwrist -8.84633
rhand -32.0543 -21.0165
rfingers 7.12502
rthumb -5.30116 -50.9302
lclavicle 5.76972e-014 -3.18055e-015
lhumerus -13.5099 -22.6697 84.8317
lradius 43.2166
lwrist 11.5187
lhand -17.4876 -30.0252
lfingers 7.12502
lthumb 8.76483 -0.227155
rfemur -43.4949 4.9189 16.1205
rtibia 35.2166
rfoot -7.3437 -1.5337
rtoes -15.396
lfemur 22.2493 7.0789 -24.825
ltibia 5.40694e-014
lfoot -2.38237 -7.55936
ltoes -2.70667
106
root 0.0196 15.8668 22.7701 7.75311 0.0324 4.02651
lowerback -4.67092 -4.37642 -5.98284
upperback -0.857003 -5.58666 2.16377
thorax 2.51462 -2.85568 5.17845
lowerneck -24.514 -3.0781 -11.8308
upperneck 24.2659 -3.02551 10.935
head 12.4739 -0.994663 5.69357
rclavicle 6.25178e-014 -9.54166e-015
rhumerus -51.0149 2.15267 -77.9137
rradius 25.1197
rwrist -8.85451
rhand -32.0445 -19.3643
rfingers 7.12502
rthumb -5.29174 -49.2782
lclavicle 6.25178e-014 -9.54166e-015
lhumerus -14.1934 -22.2677 85.1662
lradius 43.3892
lwrist 11.1246
lhand -17.1206 -30.3808
lfingers 7.12502
lthumb 9.11899 -0.597974
rfemur -42.8398 4.7391 17.146
rtibia 36.3473
rfoot -6.22382 -1.29455
rtoes -14.9277
lfemur 23.4784 7.49013 -23.9312
ltibia 3.18055e-014
lfoot -0.679888 -6.92479
ltoes -6.47961
107
root 0.0196 15.8624 22.9488 7.53972 0.0324 3.22522
lowerback -4.60548 -4.3039 -5.03574
upperback -0.910676 -5.54329 2.2973
thorax 2.3403 -2.82018 4.80038
lowerneck -24.3282 -2.93569 -11.3451
upperneck 24.2057 -2.9564 10.6851
head 12.3902 -0.953311 5.5149
rclavicle -2.24627e-014 -9.54166e-015
rhumerus -50.9937 1.69234 -77.6686
rradius 24.8589
rwrist -7.97737
rhand -31.7488 -18.8245
rfingers 7.12502
rthumb -5.00622 -48.7453
lclavicle -2.24627e-014 -9.54166e-015
lhumerus -15.0954 -21.9831 85.4772
lradius 43.6274
lwrist 11.0063
lhand -16.6259 -30.1644
lfingers 7.12502
lthumb 9.59628 -0.402936
rfemur -42.4955 4.63819 18.4396
rtibia 37.4511
rfoot -6.06933 -0.761884
rtoes -14.7169
lfemur 24.4011 7.93677 -22.7751
ltibia -8.90555e-014
lfoot 1.39149 -6.19528
ltoes -10.8715
108
root 0.0196 15.8592 23.1275 7.60747 0.0324 2.56955
lowerback -4.86713 -4.23454 -4.30219
upperback -0.992903 -5.4794 2.43202
thorax 2.3383 -2.7807 4.52086
lowerneck -24.1999 -2.9962 -11.7292
upperneck 24.0175 -3.00082 11.0399
head 12.3104 -0.963573 5.70489
rclavicle 2.43511e-014 -1.59028e-015
rhumerus -50.7734 1.40028 -77.4759
rradius 25.0983
rwrist -8.13956
rhand -30.3657 -21.1327
rfingers 7.12502
rthumb -3.67065 -51.0809
lclavicle 2.43511e-014 -1.59028e-015
lhumerus -15.8836 -22.1329 85.8054
lradius 43.7856
lwrist 11.2001
lhand -15.8262 -29.3143
lfingers 7.12502
lthumb 10.3678 0.410066
rfemur -42.4357 4.67133 19.4718
rtibia 38.519
rfoot -6.227 -0.134249
rtoes -12.5829
lfemur 24.8756 8.38635 -21.7754
ltibia 2.54444e-014
lfoot 4.18399 -5.33115
ltoes -13.1654
109
root 0.0196 15.8477 23.3062 7.55763 0.0324 2.17025
lowerback -4.91719 -4.12171 -3.94894
upperback -1.05154 -5.34886 2.58962
thorax 2.27391 -2.71102 4.49773
lowerneck -23.8135 -3.10084 -12.2628
upperneck 23.6231 -3.04327 11.31
head 12.1013 -1.00107 5.87237
rclavicle 5.22307e-014 -1.59028e-014
rhumerus -50.3809 1.75334 -77.6999
rradius 24.8558
rwrist -8.89741
rhand -29.6174 -22.9867
rfingers 7.12502
rthumb -2.94798 -52.9461
lclavicle 5.22307e-014 -1.59028e-014
lhumerus -16.5063 -22.3073 86.3463
lradius 43.7104
lwrist 11.3623
lhand -15.4418 -28.9727
lfingers 7.12502
lthumb 10.7387 0.732792
rfemur -42.1773 4.53492 20.3049
rtibia 39.5307
rfoot -6.43575 0.581657
rtoes -11.0129
lfemur 21.443 9.12274 -20.9898
ltibia 7.63586
lfoot 3.63049 -5.75471
ltoes -14.3988
